<!-- svg overlay test -->
<svg id="roomsVisibilitySvg" width="100%" height="100%" viewBox="0 0 1500 750">
  <path id="MissileCrateriagauntletleftSvg" class="svginvisible" style="opacity:0.3;fill:#ffffff" d="M 355.36328 53.644531 L 355.36328 68.669922 L 355.36328 112.88867 L 370.39062 112.88867 L 370.39062 68.669922 L 441.34766 68.669922 L 441.34766 53.644531 L 355.36328 53.644531 z "/>
  <path id="keyhunterRoomBottomSvg" class="svginvisible" style="opacity:0.3;fill:#ffffff" d="M 655.07031 84.007812 L 655.07031 99.5 L 683.27539 99.5 L 683.27539 128.0918 L 698.76758 128.0918 L 698.76758 99.5 L 713.10742 99.5 L 713.10742 84.007812 L 655.07031 84.007812 z "/>
  <path id="moatLeftSvg" class="svginvisible" style="opacity:0.3;fill:#ffffff" d="M 713.10742 84.007812 L 713.10742 99.5 L 713.10742 114.99219 L 741.52734 114.99219 L 741.52734 99.5 L 741.52734 84.007812 L 713.10742 84.007812 z "/>
  <path id="BombSvg" class="svginvisible" style="opacity:0.3;fill:#ffffff" d="M 497.57422 99.5 L 497.57422 128.60742 L 512.12305 128.60742 L 513.28516 128.60742 L 569.44531 128.60742 L 569.44531 113.11719 L 513.28516 113.11719 L 513.28516 99.5 L 497.57422 99.5 z "/>
  <path id="landingSiteSvg" class="svginvisible" style="opacity:0.3;fill:#ffffff" d="M 555.78906 23.183594 L 555.78906 84.007812 L 469.28516 84.007812 L 469.28516 99.5 L 469.28516 128.62109 L 469.28516 297.04688 L 484.77734 297.04688 L 526.11914 297.04688 L 526.11914 494.58984 L 512.75586 494.58984 L 512.75586 510.08203 L 568.65039 510.08203 L 568.65039 525.51758 L 584.14258 525.51758 L 584.14258 510.08008 L 584.14258 494.58984 L 541.61133 494.58984 L 541.61133 281.55078 L 526.11914 281.55078 L 526.11914 281.55469 L 484.77734 281.55469 L 484.77734 99.5 L 555.78906 99.5 L 655.07031 99.5 L 655.07031 23.183594 L 555.78906 23.183594 z "/>
  <path id="EnergyTankTerminatorSvg" class="svginvisible" style="opacity:0.3;fill:#ffffff" d="M 440.55664 84.007812 L 440.55664 84.099609 L 385.24414 112.88867 L 370.39062 112.88867 L 355.36523 112.88867 L 355.36523 128.38086 L 370.39062 128.38086 L 385.24414 128.38086 L 440.73438 99.5 L 455.58789 99.5 L 469.28516 99.5 L 469.28516 84.007812 L 455.58789 84.007812 L 440.73438 84.007812 L 440.55664 84.007812 z "/>
  <path id="SuperMissileCrateriaSvg" class="svginvisible" style="opacity:0.3;fill:#ffffff" d="M 484.77734 159.11133 L 484.77734 174.60352 L 540.52734 174.60352 L 540.52734 266.0625 L 484.77734 266.0625 L 484.77734 281.55469 L 556.01953 281.55469 L 556.01953 266.0625 L 556.01953 174.60352 L 556.01953 159.11133 L 540.52734 159.11133 L 484.77734 159.11133 z "/>
  <path id="MissileblueBrinstartopSvg" class="svginvisible" style="opacity:0.3;fill:#ffffff" d="M 569.36719 464.12891 L 569.36719 479.62109 L 612.01758 479.62109 L 612.01758 494.58789 L 627.50781 494.58789 L 627.50781 464.12891 L 627.00781 464.12891 L 612.01758 464.12891 L 569.36719 464.12891 z "/>
  <path id="EnergyTankBrinstarCeilingSvg" class="svginvisible" style="opacity:0.3;fill:#ffffff" d="m 584.14258,494.58984 v 15.49219 h 27.88281 v -15.49219 z"/>
  <path id="MotherBrainSvg" class="svginvisible" style="opacity:0.3;fill:#ffffff" d="M 428.53125 194.09961 L 428.53125 239.92773 L 329.20117 239.92773 L 329.20117 255.41992 L 329.20117 270.91211 L 428.53125 270.91211 L 428.53125 285.93555 L 315.0625 285.93555 L 315.0625 301.42773 L 300.56836 301.42773 L 300.56836 316.91992 L 371.80859 316.91992 L 371.80859 330.97461 L 328.84375 330.97461 L 328.84375 346.4668 L 400.53711 346.4668 L 400.53711 330.97461 L 400.53711 316.91992 L 400.53711 301.42773 L 444.02344 301.42773 L 444.02344 285.93555 L 444.02344 255.41992 L 458.16211 255.41992 L 458.16211 239.92773 L 444.02344 239.92773 L 444.02344 194.09961 L 428.53125 194.09961 z "/>
  <path id="westOceanLeftSvg" class="svginvisible" style="opacity:0.3;fill:#ffffff" d="M 918.62891 71.664062 L 918.62891 87.154297 L 918.62891 102.64648 L 933.85742 102.64648 L 933.85742 118.13867 L 947.35742 118.13867 L 976.08398 118.13867 L 1004.8125 118.13867 L 1033.541 118.13867 L 1033.541 102.64648 L 1033.541 87.154297 L 1004.8125 87.154297 L 1004.8125 71.664062 L 976.08398 71.664062 L 947.35742 71.664062 L 918.62891 71.664062 z "/>
  <path id="ReserveTankWreckedShipSvg" class="svginvisible" style="opacity:0.3;fill:#ffffff" d="m 1075.5039,56.904296 v 14.747755 h -13.2363 v 15.502246 h 13.2363 14.8047 V 56.904296 Z"/>
  <path id="wreckedShipMainSvg" class="svginvisible" style="opacity:0.3;fill:#ffffff" d="M 1090.3086 41.527344 L 1090.3086 87.154297 L 1033.541 87.154297 L 1033.541 102.18164 L 1090.3086 102.18164 L 1090.3086 117.60742 L 1033.541 117.60742 L 1033.541 132.63477 L 1090.3086 132.63477 L 1090.3086 162.50977 L 1105.3359 162.50977 L 1105.3359 102.18164 L 1118.9473 102.18164 L 1118.9473 87.154297 L 1105.3359 87.154297 L 1105.3359 41.527344 L 1090.3086 41.527344 z "/>
  <path id="wreckedShipBackSvg" class="svginvisible" style="opacity:0.3;fill:#ffffff" d="M 1161.1758 71.798828 L 1161.1758 102.18164 L 1105.3359 102.18164 L 1105.3359 117.67383 L 1161.1758 117.67383 L 1176.3125 117.67383 L 1176.666 117.67383 L 1291.2461 117.67383 L 1291.2461 101.55078 L 1291.2461 86.808594 L 1176.666 86.808594 L 1176.666 71.798828 L 1161.1758 71.798828 z "/>
  <path id="EnergyTankWreckedShipSvg" class="svginvisible" style="opacity:0.3;fill:#ffffff" d="M 1118.9551 71.798828 L 1118.9551 86.689453 L 1118.9473 86.689453 L 1118.9473 102.18164 L 1161.1719 102.18164 L 1161.1719 87.291016 L 1161.1758 87.291016 L 1161.1758 71.798828 L 1118.9551 71.798828 z "/>
  <path id="MissileWreckedShiptopSvg" class="svginvisible" style="opacity:0.3;fill:#ffffff" d="M 1033.3047 26.035156 L 1033.3047 41.527344 L 1033.3047 57.019531 L 1090.3086 57.019531 L 1090.3086 41.527344 L 1176.5645 41.527344 L 1176.5645 26.035156 L 1033.3047 26.035156 z "/>
  <path id="GravitySuitSvg" class="svginvisible" style="opacity:0.3;fill:#ffffff" d="m 947.40039,56.904296 v 14.753619 h 57.41211 V 87.15625 h 28.7285 V 71.657915 h 41.9629 V 56.904296 Z"/>
  <path id="MissileoutsideWreckedShiptopSvg" class="svginvisible" style="opacity:0.3;fill:#ffffff" d="M 918.72553,26.035156 V 40.777344 56.900391 H 1033.3047 V 40.777344 26.035156 Z"/>
  <path id="crabMazeLeftSvg" class="svginvisible" style="opacity:0.3;fill:#ffffff" d="M 1275.7539 117.67383 L 1275.7539 147.63867 L 1233.75 147.63867 L 1233.75 162.38086 L 1233.75 178.50391 L 1291.2461 178.50391 L 1291.2461 162.38086 L 1291.2461 147.63867 L 1291.2461 117.67383 L 1275.7539 117.67383 z "/>
  <path id="warehouseEntranceRightSvg" class="svginvisible" style="opacity:0.3;fill:#ffffff" d="M 665.0625 534.70703 L 665.0625 565.64453 L 678.91797 565.64453 L 678.91797 550.19727 L 690.57422 550.19727 L 690.57422 534.70703 L 678.91797 534.70703 L 665.11719 534.70703 L 665.0625 534.70703 z "/>
  <path id="businessCenterSvg" class="svginvisible" style="opacity:0.3;fill:#ffffff" d="M 649.57031 534.70703 L 649.57031 673.19531 L 665.0625 673.19531 L 678.97656 673.19531 L 678.97656 657.70312 L 721.03906 657.70312 L 721.03906 642.21094 L 665.0625 642.21094 L 665.0625 534.70703 L 649.57031 534.70703 z M 665.06836 612.33008 L 665.06836 627.25977 L 665.06836 642.18945 L 707.23828 642.18945 L 707.23828 627.25977 L 707.23828 612.33008 L 665.06836 612.33008 z "/>
  <path id="cathedralSvg" class="svginvisible" style="opacity:0.3;fill:#ffffff" d="m 707.23828,612.33008 v 14.92969 14.92969 h 42.16992 v -14.92969 -14.92969 z"/>
  <path id="bubbleMountainSvg" class="svginvisible" style="opacity:0.3;fill:#ffffff" d="M 807.1582 611.82422 L 807.1582 626.69727 L 749.4082 626.69727 L 749.4082 642.18945 L 835.64844 642.18945 L 835.64844 657.68164 L 850.05078 657.68164 L 850.05078 642.18945 L 850.05078 627.31641 L 835.65625 627.31641 L 835.65625 611.82422 L 807.1582 611.82422 z "/>
  <path id="bubbleMountainTopSvg" class="svginvisible" style="opacity:0.3;fill:#ffffff" d="M 821.6582 596.33203 L 821.6582 611.82422 L 835.62109 611.82422 L 835.62109 627.21094 L 850.01758 627.21094 L 850.01758 672.66602 L 864.32227 672.66602 L 921.5332 672.66602 L 921.5332 687.54297 L 921.5332 702.72266 L 921.51758 702.72266 L 921.51758 702.75391 L 936.52539 702.75391 L 936.52539 687.54297 L 936.52539 657.67383 L 936.21289 657.67383 L 864.32227 657.67383 L 864.32227 626.89844 L 897.7832 626.89844 L 897.7832 611.71875 L 850.05078 611.71875 L 850.05078 596.33203 L 821.6582 596.33203 z "/>
  <path id="bubbleMountainBottomSvg" class="svginvisible" style="opacity:0.3;fill:#ffffff" d="M 735.42773 642.18945 L 735.42773 642.21094 L 749.87305 642.21094 L 749.87305 657.70312 L 735.42773 657.70312 L 735.42773 657.70508 L 792.83594 657.70508 L 792.83594 672.04883 L 821.74609 672.04883 L 821.74609 687.54102 L 821.74609 702.7832 L 835.64844 702.7832 L 879.00195 702.7832 L 879.00195 687.53906 L 850.47461 687.53906 L 850.47461 672.04883 L 835.64844 672.04883 L 835.64844 657.68164 L 835.64844 642.18945 L 821.74609 642.18945 L 792.83594 642.18945 L 735.42773 642.18945 z "/>
  <path id="MissileSpeedBoosterSvg" class="svginvisible" style="opacity:0.3;fill:#ffffff" d="M 850.05664 581.39844 L 850.05664 595.88867 L 850.05078 595.88867 L 850.05078 611.82422 L 864.6582 611.82422 L 864.6582 596.00586 L 907.65039 596.00586 L 907.65039 597.81836 L 907.65039 611.72852 L 1036.3633 611.72852 L 1036.3633 597.12109 L 950.30859 597.12109 L 950.30859 595.27344 L 950.30859 581.39844 L 850.05664 581.39844 z "/>
  <path id="kronicBoostRoomBottomLeftSvg" class="svginvisible" style="opacity:0.3;fill:#ffffff" d="M 879.00195 687.53906 L 879.00195 687.57227 L 878.98242 687.57227 L 878.98242 702.74414 L 864.57617 702.74414 L 864.57617 718.23633 L 879.00195 718.23633 L 879.00195 733.77148 L 893.03125 733.77148 L 893.03125 702.75195 L 921.5293 702.75195 L 921.5293 687.57227 L 893.03125 687.57227 L 893.03125 687.53906 L 879.00195 687.53906 z "/>
  <path id="MissileaboveCrocomireSvg" class="svginvisible" style="opacity:0.3;fill:#ffffff" d="M 678.97852 657.70312 L 678.97852 673.19531 L 664.6582 673.19531 L 664.6582 687.5625 L 721.76562 687.5625 L 721.76562 672.63281 L 721.76562 657.70312 L 678.97852 657.70312 z "/>
  <path id="IceBeamSvg" class="svginvisible" style="opacity:0.3;fill:#ffffff" d="M 549.66602 581.32031 L 549.66602 604 L 549.66602 626.67969 L 607.14648 626.67969 L 607.14648 604 L 607.14648 581.32031 L 549.66602 581.32031 z M 607.14844 612.125 L 607.14844 626.67969 L 649.57031 626.67969 L 649.57031 612.125 L 607.14844 612.125 z "/>
  <path id="HiJumpBootsSvg" class="svginvisible" style="opacity:0.3;fill:#ffffff" d="M 620.92969 642.00391 L 620.92969 657.49219 L 607.75586 657.49219 L 607.75586 672.98438 L 636.39844 672.98438 L 636.39844 657.49219 L 636.39258 657.49219 L 636.39258 642.00391 L 620.92969 642.00391 z "/>
  <path id="EnergyTankHiJumpBootsSvg" class="svginvisible" style="opacity:0.3;fill:#ffffff" d="m 636.39258,642.00391 v 15.49218 h 13.17584 v -15.49218 z"/>
  <path id="MissileWaveBeamSvg" class="svginvisible" style="opacity:0.3;fill:#ffffff" d="m 864.32227,626.89844 v 15.38769 15.3877 h 56.93077 v -15.3877 -15.38769 z"/>
  <path id="WaveBeamSvg" class="svginvisible" style="opacity:0.3;fill:#ffffff" d="m 921.25304,626.89844 v 15.49218 h 14.92584 v -15.49218 z"/>
  <path id="MissilebelowIceBeamSvg" class="svginvisible" style="opacity:0.3;fill:#ffffff" d="M 535.23438 626.67969 L 535.23438 687.66602 L 535.25586 687.66602 L 535.25586 688.30859 L 593.66016 688.30859 L 650.1582 718.23633 L 721.8125 718.23633 L 721.8125 702.74414 L 650.1582 702.74414 L 593.66016 672.81836 L 550.72656 672.81836 L 550.72656 642.17188 L 607.38281 642.17188 L 607.38281 626.67969 L 550.72656 626.67969 L 549.66602 626.67969 L 535.23438 626.67969 z "/>
  <path id="crocomireSpeedwayBottomSvg" class="svginvisible" style="opacity:0.3;fill:#ffffff" d="M 779.11133 657.70508 L 779.11133 702.74414 L 750.45898 702.74414 L 750.45898 687.25195 L 735.61719 687.25195 L 735.61719 672.09375 L 721.8125 672.09375 L 721.8125 718.23633 L 735.61719 718.23633 L 864.57617 718.23633 L 864.57617 702.74414 L 792.83594 702.74414 L 792.83594 657.70508 L 779.11133 657.70508 z "/>
  <path id="kraidRoomOutSvg" class="svginvisible" style="opacity:0.3;fill:#ffffff" d="M 791.08398 498.81641 L 791.08398 514.30859 L 791.08398 529.80078 L 934.66602 529.80078 L 934.66602 514.30859 L 934.66602 498.81641 L 905.83398 498.81641 L 905.83398 514.30859 L 863.04102 514.30859 L 863.04102 498.81641 L 791.08398 498.81641 z "/>
  <path id="kraidRoomInSvg" class="svginvisible" style="opacity:0.3;fill:#ffffff" d="m 985.20214,509.25781 v 30.1005 h 14.50734 14.50742 v -30.1005 h -14.50742 z"/>
  <path id="warehouseZeelaRoomLeftSvg" class="svginvisible" style="opacity:0.3;fill:#ffffff" d="m 791.08398,498.81641 h -14.2461 v 30.98437 h 14.2461 z"/>
  <path id="redBrinstarElevatorSvg" class="svginvisible" style="opacity:0.3;fill:#ffffff" d="M 842.01562 226.26953 L 842.01562 319.95117 L 842.01562 334.07227 L 842.01562 352.60547 L 842.01562 365.25391 L 856.13672 365.25391 L 856.13672 319.44141 L 870.25781 319.44141 L 870.25781 304.11328 L 856.13672 304.11328 L 856.13672 226.26953 L 842.01562 226.26953 z "/>
  <path id="PowerBombredBrinstarsidehopperroomSvg" class="svginvisible" style="opacity:0.3;fill:#ffffff" d="M 812.8457 288.62891 L 812.8457 319.94531 L 827.93945 319.94531 L 827.93945 304.12109 L 842.01172 304.12109 L 842.01172 288.62891 L 827.93945 288.62891 L 817.5957 288.62891 L 812.8457 288.62891 z "/>
  <path id="XRayScopeSvg" class="svginvisible" style="opacity:0.3;fill:#ffffff" d="M 641.60547 410.96094 L 641.60547 425.92578 L 670.95508 425.92578 L 670.95508 440.88867 L 698.96875 440.88867 L 698.96875 440.80859 L 698.96875 438.35156 L 698.96875 425.97656 L 727.97266 425.97656 L 727.97266 438.35156 L 727.97266 440.80859 L 727.97266 440.88867 L 755.89648 440.88867 L 755.89648 426.05664 L 784.90039 426.05664 L 784.90039 425.92578 L 784.90039 410.96094 L 641.60547 410.96094 z "/>
  <path id="eastTunnelRightSvg" class="svginvisible" style="opacity:0.3;fill:#ffffff" d="M 784.90039 426.06055 L 784.90039 455.92773 L 770.89062 455.92773 L 770.89062 470.88281 L 870.77734 470.88281 L 870.77734 485.83789 L 898.23438 485.83789 L 898.23438 470.88281 L 898.23438 455.92773 L 798.88281 455.92773 L 798.88281 426.06055 L 784.90039 426.06055 z "/>
  <path id="CrocomireSvg" class="svginvisible" style="opacity:0.3;fill:#ffffff" d="M 259.75977 621.20703 L 259.75977 636.69727 L 259.75977 652.18945 L 259.75977 727.84375 L 246.39453 727.84375 L 246.39453 743.33594 L 289.35156 743.33594 L 289.35156 727.84375 L 275.25195 727.84375 L 275.25195 652.18945 L 303.16406 652.18945 L 303.16406 636.69922 L 359.06836 636.69922 L 359.06836 621.20703 L 289.11914 621.20703 L 259.75977 621.20703 z "/>
  <path id="GrappleBeamSvg" class="svginvisible" style="opacity:0.3;fill:#ffffff" d="M 202.86328 651.20703 L 202.86328 682.18164 L 159.93164 682.18164 L 159.93164 696.73633 L 159.93164 728.38867 L 174.42383 728.38867 L 174.42383 729.13281 L 174.42383 743.33594 L 246.39453 743.33594 L 246.39453 729.13281 L 246.39453 712.93555 L 174.42383 712.93555 L 174.42383 696.73633 L 202.86328 696.73633 L 217.35547 696.73633 L 217.35547 682.19141 L 259.75977 682.19141 L 259.75977 666.69922 L 259.75977 651.20703 L 217.35547 651.20703 L 202.86328 651.20703 z "/>
  <path id="greenBrinstarElevatorSvg" class="svginvisible" style="opacity:0.3;fill:#ffffff" d="M 65.054688 300.05859 L 65.054688 447.32617 L 65.017578 447.32617 L 50.695312 447.32617 L 50.695312 462.81836 L 21.96875 462.81836 L 21.96875 477.54688 L 7.7304688 477.54688 L 7.7304688 493.51172 L 36.410156 493.51172 L 36.410156 477.54688 L 65.054688 477.54688 L 79.037109 477.54688 L 79.037109 300.05859 L 65.054688 300.05859 z "/>
  <path id="SuperMissilegreenBrinstartopSvg" class="svginvisible" style="opacity:0.3;fill:#ffffff" d="M 79.017578 416.3418 L 79.017578 431.83398 L 107.6582 431.83398 L 107.6582 447.32617 L 122.50781 447.32617 L 122.50781 431.83398 L 122.50781 416.3418 L 79.017578 416.3418 z "/>
  <path id="etecoonsBottomSvg" class="svginvisible" style="opacity:0.3;fill:#ffffff" d="M 65.054688 477.54688 L 65.054688 523.54297 L 21.826172 523.54297 L 21.826172 539.03516 L 65.054688 539.03516 L 79.037109 539.03516 L 79.037109 477.54688 L 65.054688 477.54688 z "/>
  <path id="PowerBombgreenBrinstarbottomSvg" class="svginvisible" style="opacity:0.3;fill:#ffffff" d="M 79.037109 477.54688 L 79.037109 493.03906 L 94.488281 493.03906 L 94.488281 523.54297 L 79.037109 523.54297 L 79.037109 539.03516 L 7.2578125 539.03516 L 7.2578125 554.52734 L 108.4707 554.52734 L 108.4707 539.03516 L 108.4707 493.03906 L 122.41992 493.03906 L 122.41992 477.54688 L 79.037109 477.54688 z "/>
  <path id="bigPinkSvg" class="svginvisible" style="opacity:0.3;fill:#ffffff" d="M 150.80078 431.83398 L 150.80078 447.32617 L 179.94922 447.32617 L 179.94922 462.05469 L 136.56641 462.05469 L 136.56641 477.54688 L 179.94922 477.54688 L 179.94922 493.03906 L 179.94922 508.53125 L 179.94922 524.02148 L 179.94922 539.51367 L 207.53516 539.51367 L 207.53516 431.83398 L 179.95117 431.83398 L 150.80078 431.83398 z "/>
  <path id="PowerBombpinkBrinstarSvg" class="svginvisible" style="opacity:0.3;fill:#ffffff" d="M 151.30664 477.54688 L 151.30664 493.03906 L 151.30664 508.53125 L 179.94922 508.53125 L 179.94922 493.03906 L 179.94922 477.54688 L 151.30664 477.54688 z "/>
  <path id="EnergyTankBrinstarGateSvg" class="svginvisible" style="opacity:0.3;fill:#ffffff" d="m 207.51172,477.54688 v 15.49218 15.49219 h 43.39844 v -15.49219 h -14.46417 v -15.49218 z"/>
  <path id="EnergyTankWaterwaySvg" class="svginvisible" style="opacity:0.3;fill:#ffffff" d="M 151.0625 539.51367 L 151.0625 553.88086 L 151.0625 569.08789 L 50.425781 569.08789 L 50.425781 584.45508 L 151.0625 584.45508 L 165.42969 584.45508 L 165.42969 553.88086 L 179.94922 553.88086 L 179.94922 539.51367 L 151.0625 539.51367 z "/>
  <path id="SporeSpawnSvg" class="svginvisible" style="opacity:0.3;fill:#ffffff" d="M 250.30859 385.62891 L 250.30859 401.11914 L 250.30078 401.11914 L 250.30078 431.83398 L 207.53516 431.83398 L 207.53516 447.32617 L 265.79297 447.32617 L 265.79297 431.83398 L 265.79297 401.12109 L 272.94336 401.12109 L 278.82422 401.12109 L 294.31641 401.12109 L 294.31641 385.62891 L 250.30859 385.62891 z "/>
  <path id="greenHillZoneTopRightSvg" class="svginvisible" style="opacity:0.3;fill:#ffffff" d="M 207.51172 524.02344 L 207.51172 539.60352 L 207.53516 539.60352 L 207.53516 554.21094 L 236.74023 554.21094 L 236.74023 568.90625 L 265.02539 568.90625 L 265.02539 584.48633 L 294.35547 584.48633 L 294.35547 568.90625 L 294.35547 554.21094 L 250.91797 554.21094 L 250.91797 538.71875 L 235.96484 538.71875 L 235.96484 524.02344 L 207.51172 524.02344 z "/>
  <path id="redFishRoomLeftSvg" class="svginvisible" style="opacity:0.3;fill:#ffffff" d="M 1019.9102 307.11328 L 1019.9102 321.95117 L 1046.7715 321.95117 L 1046.7715 337.70703 L 1060.9238 337.70703 L 1060.9238 321.95117 L 1060.9238 307.11328 L 1019.9102 307.11328 z "/>
  <path id="wateringHoleSvg" class="svginvisible" style="opacity:0.3;fill:#ffffff" d="M 1018.0234 261.22656 L 1018.0234 276.06641 L 1018.0234 307.11328 L 1032.1758 307.11328 L 1032.1758 276.06641 L 1046.7305 276.06641 L 1046.7305 290.90625 L 1103.7578 290.90625 L 1103.7578 276.06641 L 1060.9961 276.06641 L 1060.9961 261.22656 L 1018.0234 261.22656 z "/>
  <path id="beachSvg" class="svginvisible" style="opacity:0.3;fill:#ffffff" d="M 1103.7578 261.22656 L 1103.7578 276.06641 L 1103.7578 291.40625 L 1103.7578 306.74609 L 1147.7832 306.74609 L 1147.7832 291.40625 L 1160.7832 291.40625 L 1160.7832 276.06641 L 1160.7832 261.22656 L 1103.7578 261.22656 z "/>
  <path id="MissilegreenMaridiatatoriSvg" class="svginvisible" style="opacity:0.3;fill:#ffffff" d="M 1104.0996 382.74805 L 1104.0996 429.24023 L 1089.3242 429.24023 L 1089.3242 444.08008 L 1104.0996 444.08008 L 1131.9141 444.08008 L 1131.9141 382.74805 L 1104.0996 382.74805 z "/>
  <path id="westMaridiaSvg" class="svginvisible" style="opacity:0.3;fill:#ffffff" d="M 989.14258 337.70703 L 989.14258 367.63086 L 989.14258 397.55664 L 989.14258 427.48047 L 989.14258 444.08008 L 1018.375 444.08008 L 1089.3242 444.08008 L 1089.3242 429.24023 L 1089.3242 397.55664 L 1089.3242 367.63086 L 1103.7578 367.63086 L 1103.7578 337.70703 L 989.14258 337.70703 z M 1005.6465 367.63086 L 1032.2637 367.63086 L 1032.2637 397.55664 L 1032.2637 429.24023 L 1018.375 429.24023 L 1018.375 427.48047 L 1018.375 397.55664 L 1018.375 382.60156 L 1005.6465 382.60156 L 1005.6465 367.63086 z "/>
  <path id="SpringBallSvg" class="svginvisible" style="opacity:0.3;fill:#ffffff" d="M 1255.0039 399.30859 L 1255.0039 415.21094 L 1255.0039 430.05078 L 1255.0039 444.88867 L 1340.8926 444.88867 L 1340.8926 459.72852 L 1369.9785 459.72852 L 1369.9785 444.88867 L 1355.4941 444.88867 L 1355.4941 429.80078 L 1283.7949 429.80078 L 1283.7949 415.21094 L 1283.7949 399.30859 L 1255.0039 399.30859 z "/>
  <path id="PlasmaBeamSvg" class="svginvisible" style="opacity:0.3;fill:#ffffff" d="M 1240.7109 201.01953 L 1240.7109 215.86523 L 1240.7109 261.91797 L 1255.0195 261.91797 L 1255.0195 215.86523 L 1269.084 215.86523 L 1269.084 230.70898 L 1269.084 246.86719 L 1297.8535 246.86719 L 1297.8535 230.70898 L 1297.8535 215.86523 L 1297.8535 201.01953 L 1255.0195 201.01953 L 1240.7109 201.01953 z "/>
  <path id="leCoudeRightSvg" class="svginvisible" style="opacity:0.3;fill:#ffffff" d="M 1368.998 177.17969 L 1368.998 276.90234 L 1269.3301 276.90234 L 1255.0195 276.90234 L 1255.0195 261.91797 L 1240.7109 261.91797 L 1240.7109 231.29297 L 1226.4023 231.29297 L 1212.0938 231.29297 L 1212.0938 322.81641 L 1226.4023 322.81641 L 1240.7109 322.81641 L 1255.0195 322.81641 L 1269.3301 322.81641 L 1269.3301 292.34766 L 1368.998 292.34766 L 1384.3672 292.34766 L 1384.3672 276.90234 L 1384.3672 177.17969 L 1368.998 177.17969 z M 1197.9727 261.65234 L 1197.9727 276.97266 L 1212.0918 276.97266 L 1212.0918 261.65234 L 1197.9727 261.65234 z "/>
  <path id="CacatacAlleySvg" class="svginvisible" style="opacity:0.3;fill:#ffffff" d="M 1269.3301 292.34766 L 1269.3301 306.65625 L 1269.3301 322.81641 L 1354.916 322.81641 L 1354.916 306.65625 L 1354.916 292.34766 L 1269.3301 292.34766 z "/>
  <path id="colosseumTopRightSvg" class="svginvisible" style="opacity:0.3;fill:#ffffff" d="M 1354.916 292.34766 L 1354.916 307.2207 L 1354.916 307.94336 L 1354.916 322.81641 L 1469.207 322.81641 L 1469.207 307.94336 L 1498.457 307.94336 L 1498.457 292.34766 L 1354.916 292.34766 z "/>
  <path id="draygonRoomInSvg" class="svginvisible" style="opacity:0.3;fill:#ffffff" d="M 1399.625 356.625 L 1399.625 371.49805 L 1399.625 371.5 L 1399.625 388.05859 L 1428.875 388.05859 L 1428.875 371.5 L 1428.875 371.49805 L 1428.875 356.625 L 1399.625 356.625 z "/>
  <path id="aqueductBottomSvg" class="svginvisible" style="opacity:0.3;fill:#ffffff" d="M 1168.2012 338.41211 L 1168.2012 354.00586 L 1168.2012 354.76172 L 1183.7383 354.76172 L 1183.7383 369.60156 L 1168.2012 369.60156 L 1155.2285 369.60156 L 1155.2285 383.95898 L 1183.7383 383.95898 L 1183.7383 413.83203 L 1169.4297 413.83203 L 1169.4297 444.85547 L 1183.7383 444.85547 L 1198.0469 444.85547 L 1198.0469 383.95898 L 1211.9883 383.95898 L 1211.9883 444.85547 L 1226.2969 444.85547 L 1240.6074 444.85547 L 1240.6074 413.83203 L 1226.2969 413.83203 L 1226.2969 383.95898 L 1255.2617 383.95898 L 1255.2617 369.60156 L 1305.7988 369.60156 L 1305.7988 354.00586 L 1226.4922 354.00586 L 1226.4922 338.41211 L 1168.2012 338.41211 z "/>
  <path id="aqueductSvg" class="svginvisible" style="opacity:0.3;fill:#ffffff" d="m 1226.4922,338.41211 v 15.59375 h 28.7509 v -15.59375 z"/>
  <path id="oasisBottomSvg" class="svginvisible" style="opacity:0.3;fill:#ffffff" d="M 1198.0469 430.5332 L 1198.0469 444.85547 L 1146.4395 444.85547 L 1146.4395 459.69531 L 1283.7969 459.69531 L 1283.7969 444.85547 L 1211.9883 444.85547 L 1211.9883 430.5332 L 1198.0469 430.5332 z "/>
  <path id="ridleyRoomOutSvg" class="svginvisible" style="opacity:0.3;fill:#ffffff" d="M 1331.7285 664.96094 L 1331.7285 680.87695 L 1206.4375 680.87695 L 1206.4375 695.32422 L 1331.7285 695.32422 L 1346.1758 695.32422 L 1346.1758 680.87695 L 1346.1758 664.96094 L 1331.7285 664.96094 z "/>
  <path id="lNEntranceSvg" class="svginvisible" style="opacity:0.3;fill:#ffffff" d="M 1146.2637 589.40625 L 1146.2637 604.43359 L 1160.1113 604.43359 L 1160.1113 634.48438 L 1074.5215 634.48438 L 1074.5215 650.30664 L 1074.5215 664.77539 L 1103.2148 664.77539 L 1103.2148 650.30664 L 1217.4902 650.30664 L 1217.4902 665.33203 L 1232.3398 665.33203 L 1232.3398 634.48438 L 1288.8379 634.48438 L 1288.8379 619.45898 L 1232.3398 619.45898 L 1217.4902 619.45898 L 1217.4902 634.48438 L 1175.1387 634.48438 L 1175.1387 604.43359 L 1188.6328 604.43359 L 1188.6328 589.40625 L 1146.2637 589.40625 z "/>
  <path id="lavaDiveRightSvg" class="svginvisible" style="opacity:0.3;fill:#ffffff" d="M 1188.6328 589.40625 L 1188.6328 604.43359 L 1188.6328 619.45898 L 1188.6328 634.48438 L 1217.5508 634.48438 L 1217.5508 619.45898 L 1232.3398 619.45898 L 1232.3398 604.43359 L 1232.3398 589.40625 L 1188.6328 589.40625 z "/>
  <path id="SuperMissileGoldTorizoSvg" class="svginvisible" style="opacity:0.3;fill:#ffffff" d="M 1131.9648 664.77539 L 1131.9648 680.59766 L 1116.9648 680.59766 L 1116.9648 695.62305 L 1131.9648 695.62305 L 1146.0195 695.62305 L 1146.0195 664.77539 L 1131.9648 664.77539 z "/>
  <path id="screwAttackBottomSvg" class="svginvisible" style="opacity:0.3;fill:#ffffff" d="M 1146.0195 650.30664 L 1146.0195 695.62305 L 1160.1719 695.62305 L 1160.1719 679.93555 L 1175.3984 679.93555 L 1175.3984 665.33203 L 1217.4902 665.33203 L 1217.4902 650.30664 L 1160.1719 650.30664 L 1146.0195 650.30664 z "/>
  <path id="MissileMickeyMouseroomSvg" class="svginvisible" style="opacity:0.3;fill:#ffffff" d="M 1274.6855 574.14258 L 1274.6855 589.65625 L 1259.4746 589.65625 L 1259.4746 604.25977 L 1274.6855 604.25977 L 1274.6855 619.45898 L 1288.8379 619.45898 L 1288.8379 650.30664 L 1232.3398 650.30664 L 1232.3398 665.33203 L 1288.8379 665.33203 L 1302.9883 665.33203 L 1302.9883 574.14258 L 1288.8379 574.14258 L 1274.6855 574.14258 z "/>
  <path id="PowerBombPowerBombsofshameSvg" class="svginvisible" style="opacity:0.3;fill:#ffffff" d="M 1360.1934 588.81445 L 1360.1934 649.93555 L 1317.2305 649.93555 L 1317.2305 664.96094 L 1403.0156 664.96094 L 1403.0156 649.93555 L 1403.0156 634.50195 L 1389.1836 634.50195 L 1389.1836 619.45898 L 1375.0527 619.45898 L 1375.0527 588.81445 L 1360.1934 588.81445 z "/>
  <path id="firefleasSvg" class="svginvisible" style="opacity:0.3;fill:#ffffff" d="M 1288.3867 497.48828 L 1288.3867 513.48633 L 1274.834 513.48633 L 1274.834 528.51367 L 1288.3867 528.51367 L 1288.3867 528.51758 L 1303.4121 528.51758 L 1303.4121 528.51367 L 1332.084 528.51367 L 1332.084 543.53906 L 1375.0312 543.53906 L 1375.0312 574.14258 L 1360.1934 574.14258 L 1345.3359 574.14258 L 1330.4785 574.14258 L 1317.2285 574.14258 L 1317.2285 588.66016 L 1302.9883 588.66016 L 1302.9883 649.93555 L 1317.2285 649.93555 L 1317.2305 649.93555 L 1330.4785 649.93555 L 1345.3359 649.93555 L 1360.1934 649.93555 L 1360.1934 588.85547 L 1375.0312 588.85547 L 1375.0312 619.45898 L 1389.1836 619.45898 L 1403.334 619.45898 L 1403.334 574.14062 L 1389.1836 574.14062 L 1389.1836 543.53906 L 1389.1836 528.51367 L 1375.0586 528.51367 L 1375.0586 513.48633 L 1303.4121 513.48633 L 1303.4121 497.48828 L 1288.3867 497.48828 z "/>
  <path id="PowerBomblowerNorfairabovefireflearoomSvg" class="svginvisible" style="opacity:0.3;fill:#ffffff" d="M 1375.0586 513.48633 L 1375.0586 528.51367 L 1389.1836 528.51367 L 1389.1836 543.53906 L 1403.334 543.53906 L 1403.334 528.51367 L 1403.3359 528.51367 L 1403.3359 513.48633 L 1375.0586 513.48633 z "/>
  <path id="lowerMushroomsLeftSvg" class="svginvisible" style="opacity:0.3;fill:#ffffff" d="M 355.36523 128.38086 L 355.36523 143.98633 L 304.35742 143.98633 L 304.35742 159.01367 L 355.36523 159.01367 L 370.39062 159.01367 L 370.39062 128.38086 L 355.36523 128.38086 z "/>
  <path id="SuperMissilepinkBrinstarSvg" class="svginvisible" style="opacity:0.3;fill:#ffffff" d="m 278.7461,401.12109 v 107.41016 h -71.3125 v 15.49218 h 86.88281 V 508.53125 401.12109 h -0.0781 z"/>
  <rect id="PowerBombCrateriasurfaceSvg" class="svginvisible" style="opacity:0.3;fill:#ffffff" width="28.727755" height="15.491742" x="655.07013" y="38.224869"/>
  <rect id="EnergyTankGauntletSvg" class="svginvisible" style="opacity:0.3;fill:#ffffff" width="114.4409" height="15.026135" x="441.34726" y="53.644016"/>
  <rect id="MissileCrateriamiddleSvg" class="svginvisible" style="opacity:0.3;fill:#ffffff" width="42.908085" height="15.491742" x="426.37686" y="128.62068"/>
  <rect id="PowerBombblueBrinstarSvg" class="svginvisible" style="opacity:0.3;fill:#ffffff" width="28.641785" height="15.491742" x="484.11407" y="494.58984"/>
  <rect id="goldenFourSvg" class="svginvisible" style="opacity:0.3;fill:#ffffff" width="84.765968" height="15.491742" x="359.25742" y="178.60771"/>
  <rect id="MissileCrateriabottomSvg" class="svginvisible" style="opacity:0.3;fill:#ffffff" width="15.227757" height="15.491742" x="483.76639" y="297.04688"/>
  <rect id="MissileblueBrinstarbottomSvg" class="svginvisible" style="opacity:0.3;fill:#ffffff" width="15.227757" height="15.491742" x="553.42261" y="510.02582"/>
  <rect id="MissileblueBrinstarmiddleSvg" class="svginvisible" style="opacity:0.3;fill:#ffffff" width="15.482334" height="15.491742" x="612.02081" y="494.5903"/>
  <rect id="MissileGravitySuitSvg" class="svginvisible" style="opacity:0.3;fill:#ffffff" width="28.727755" height="15.491742" x="1033.5402" y="71.663223"/>
  <rect id="MissileoutsideWreckedShipbottomSvg" class="svginvisible" style="opacity:0.3;fill:#ffffff" width="15.227757" height="15.491742" x="918.62964" y="102.64693"/>
  <rect id="MissileoutsideWreckedShipmiddleSvg" class="svginvisible" style="opacity:0.3;fill:#ffffff" width="28.727755" height="14.784636" x="918.67261" y="56.885284"/>
  <rect id="RightSuperWreckedShipSvg" class="svginvisible" style="opacity:0.3;fill:#ffffff" width="71.507713" height="15.491742" x="1105.3396" y="132.55132"/>
  <rect id="SuperMissileWreckedShipleftSvg" class="svginvisible" style="opacity:0.3;fill:#ffffff" width="14.609039" height="15.491742" x="1075.6996" y="132.63477"/>
  <rect id="phantoonRoomOutSvg" class="svginvisible" style="opacity:0.3;fill:#ffffff" width="62.934044" height="15.933684" x="1071.1074" y="162.49718"/>
  <rect id="phantoonRoomInSvg" class="svginvisible" style="opacity:0.3;fill:#ffffff" width="14.609039" height="15.491742" x="1181.5187" y="162.69173"/>
  <rect id="morphBallRoomLeftSvg" class="svginvisible" style="opacity:0.3;fill:#ffffff" width="22.891785" height="15.491742" x="461.22229" y="494.58984"/>
  <rect id="MissilebubbleNorfairgreendoorSvg" class="svginvisible" style="opacity:0.3;fill:#ffffff" width="28.833727" height="15.491742" x="792.82446" y="596.33282"/>
  <rect id="ReserveTankNorfairSvg" class="svginvisible" style="opacity:0.3;fill:#ffffff" width="28.833727" height="15.491742" x="763.99072" y="596.33282"/>
  <rect id="SpeedBoosterSvg" class="svginvisible" style="opacity:0.3;fill:#ffffff" width="15.227757" height="14.602727" x="1036.3633" y="597.12109"/>
  <rect id="singleChamberTopRightSvg" class="svginvisible" style="opacity:0.3;fill:#ffffff" width="38.391785" height="15.179242" x="897.78406" y="611.71967"/>
  <rect id="VariaSuitSvg" class="svginvisible" style="opacity:0.3;fill:#ffffff" width="14.811002" height="14.241742" x="524.54736" y="-1028.4586"/>
  <rect id="EnergyTankKraidSvg" class="svginvisible" style="opacity:0.3;fill:#ffffff" width="15.173571" height="14.241742" x="514.6272" y="-776.84222"/>
  <rect id="caterpillarRoomTopRightSvg" class="svginvisible" style="opacity:0.3;fill:#ffffff" width="25.977755" height="15.491742" x="856.13611" y="288.62912"/>
  <rect id="PowerBombredBrinstarspikeroomSvg" class="svginvisible" style="opacity:0.3;fill:#ffffff" width="28.915255" height="15.491742" x="813.10034" y="349.76218"/>
  <rect id="MissileredBrinstarspikeroomSvg" class="svginvisible" style="opacity:0.3;fill:#ffffff" width="14.206308" height="15.491742" x="798.89398" y="349.76218"/>
  <rect id="redTowerTopLeftSvg" class="svginvisible" style="opacity:0.3;fill:#ffffff" width="13.982194" height="91.988007" x="784.90039" y="334.07227"/>
  <rect id="SpazerSvg" class="svginvisible" style="opacity:0.3;fill:#ffffff" width="42.844105" height="14.954462" x="827.9328" y="440.97357"/>
  <rect id="eastTunnelTopRightSvg" class="svginvisible" style="opacity:0.3;fill:#ffffff" width="48.589348" height="14.954462" x="884.77692" y="440.97357"/>
  <rect id="glassTunnelTopSvg" class="svginvisible" style="opacity:0.3;fill:#ffffff" width="14.000005" height="14.954462" x="870.77692" y="440.97357"/>
  <rect id="HellwaySvg" class="svginvisible" style="opacity:0.3;fill:#ffffff" width="57.114357" height="14.13236" x="784.90039" y="319.93991"/>
  <rect id="FrogSpeedwayCenterSvg" class="svginvisible" style="opacity:0.3;fill:#ffffff" width="28.833727" height="15.491742" x="721.03931" y="642.21094"/>
  <rect id="EnergyTankCrocomireSvg" class="svginvisible" style="opacity:0.3;fill:#ffffff" width="43.903938" height="15.491742" x="359.06808" y="621.2063"/>
  <rect id="MissilebelowCrocomireSvg" class="svginvisible" style="opacity:0.3;fill:#ffffff" width="57.209064" height="15.491742" x="275.25333" y="696.72632"/>
  <rect id="MissileGrappleBeamSvg" class="svginvisible" style="opacity:0.3;fill:#ffffff" width="71.969917" height="16.198849" x="174.42415" y="696.73596"/>
  <rect id="PowerBombCrocomireSvg" class="svginvisible" style="opacity:0.3;fill:#ffffff" width="14.477757" height="15.491742" x="245.28201" y="621.20703"/>
  <rect id="MissilegreenBrinstarbelowsupermissileSvg" class="svginvisible" style="opacity:0.3;fill:#ffffff" width="28.641785" height="15.491742" x="79.017227" y="431.83417"/>
  <rect id="ReserveTankBrinstarSvg" class="svginvisible" style="opacity:0.3;fill:#ffffff" width="14.146095" height="15.491742" x="122.50781" y="431.83444"/>
  <rect id="MissilegreenBrinstarbehindreservetankSvg" class="svginvisible" style="opacity:0.3;fill:#ffffff" width="14.146095" height="15.491742" x="136.6539" y="431.83444"/>
  <rect id="etecoonsSupersSvg" class="svginvisible" style="opacity:0.3;fill:#ffffff" width="14.568192" height="15.49199" x="7.2578125" y="523.54315"/>
  <rect id="DachoraRoomLeftSvg" class="svginvisible" style="opacity:0.3;fill:#ffffff" width="43.382812" height="15.491747" x="79.037109" y="462.05515"/>
  <rect id="DachoraRoomCenterSvg" class="svginvisible" style="opacity:0.3;fill:#ffffff" width="14.146095" height="15.491742" x="122.41992" y="462.05515"/>
  <rect id="ChargeBeamSvg" class="svginvisible" style="opacity:0.3;fill:#ffffff" width="14.146095" height="14.366742" x="179.94922" y="539.51367"/>
  <rect id="noobBridgeRightSvg" class="svginvisible" style="opacity:0.3;fill:#ffffff" width="109.32052" height="15.580135" x="294.35452" y="568.90625"/>
  <rect id="MissilegreenBrinstarpipeSvg" class="svginvisible" style="opacity:0.3;fill:#ffffff" width="14.146094" height="15.492169" x="250.91797" y="538.71875"/>
  <rect id="crabShaftRightSvg" class="svginvisible" style="opacity:0.3;fill:#ffffff" width="25.559719" height="14.839467" x="1103.7578" y="352.79224"/>
  <rect id="crabShaftLeftSvg" class="svginvisible" style="opacity:0.3;fill:#ffffff" width="14.30026" height="46.046146" x="1103.7578" y="306.74609"/>
  <rect id="CrabTunnelSvg" class="svginvisible" style="opacity:0.3;fill:#ffffff" width="84.948845" height="14.839467" x="1018.3746" y="444.07956"/>
  <rect id="SuperMissilegreenMaridiaSvg" class="svginvisible" style="opacity:0.3;fill:#ffffff" width="26.616241" height="14.972589" x="1005.6467" y="367.62933"/>
  <rect id="mainStreetBottomSvg" class="svginvisible" style="opacity:0.3;fill:#ffffff" width="29.231962" height="14.838946" x="989.14258" y="444.08008"/>
  <rect id="crabHoleBottomLeftSvg" class="svginvisible" style="opacity:0.3;fill:#ffffff" width="13.97555" height="14.811603" x="1075.3488" y="458.91992"/>
  <rect id="CrabTunnelSvg-3-8-0-5-6-6-0-4-2" class="svginvisible" style="opacity:0.3;fill:#ffffff" width="14.054841" height="15.44486" x="-1398.4227" y="-276.90295"/>
  <rect id="postBotwoonSvg" class="svginvisible" style="opacity:0.3;fill:#ffffff" width="185.49615" height="15.594834" x="1255.245" y="322.81641"/>
  <rect id="SpaceJumpSvg" class="svginvisible" style="opacity:0.3;fill:#ffffff" width="15.625015" height="16.43556" x="-1399.625" y="-388.05957"/>
  <rect id="preciousRoomTopSvg" class="svginvisible" style="opacity:0.3;fill:#ffffff" width="29.250675" height="14.873042" x="1469.2063" y="307.94336"/>
  <rect id="draygonRoomOutSvg" class="svginvisible" style="opacity:0.3;fill:#ffffff" width="14.656584" height="31.203791" x="1469.207" y="322.81641"/>
  <rect id="aqueductTopLeftSvg" class="svginvisible" style="opacity:0.3;fill:#ffffff" width="15.537165" height="14.839477" x="1168.2012" y="354.76172"/>
  <rect id="ridleyRoomInSvg" class="svginvisible" style="opacity:0.3;fill:#ffffff" width="14.30026" height="31.108515" x="1148.7042" y="707.61987"/>
  <rect id="EnergyTankRidleySvg" class="svginvisible" style="opacity:0.3;fill:#ffffff" width="14.30026" height="15.021835" x="1134.4039" y="723.70654"/>
  <rect id="lNAboveGTSvg" class="svginvisible" style="opacity:0.3;fill:#ffffff" width="57.444092" height="15.821716" x="1074.5206" y="664.77521"/>
  <rect id="threeMuskateersRoomLeftSvg" class="svginvisible" style="opacity:0.3;fill:#ffffff" width="15.026219" height="14.602727" x="1288.3861" y="482.88614"/>
  <rect id="BotwoonSvg" class="svginvisible" style="opacity:0.3;fill:#ffffff" width="87.043793" height="15.595704" x="1168.2012" y="322.81641"/>
</svg>
