<svg id="Layer_1" data-name="Layer 1" xmlns="http://www.w3.org/2000/svg" viewBox="0 0 512 512"><title>link</title><path d="M512,256c0,141.38-114.62,256-256,256S0,397.39,0,256,114.62,0,256,0,512,114.62,512,256Z" fill="#404041"/><path d="M28,139.52,139.52,28A257.1,257.1,0,0,0,28,139.52Z" fill="#4d4d4f"/><path d="M179.06,11.77,11.77,179.06a254.14,254.14,0,0,0-6.43,24.69L203.75,5.34A253.94,253.94,0,0,0,179.06,11.77Z" fill="#4d4d4f"/><path d="M231.24,1.2l-230,230Q.27,240.84.07,250.64L250.63.07Q240.84.27,231.24,1.2Z" fill="#4d4d4f"/><path d="M273.44.6.6,273.43q.56,8.39,1.66,16.63L290.05,2.26Q281.83,1.17,273.44.6Z" fill="#4d4d4f"/><path d="M309.94,5.71,5.71,309.95q1.59,7.41,3.6,14.66L324.6,9.31Q317.35,7.3,309.94,5.71Z" fill="#4d4d4f"/><path d="M342.32,14.93,14.94,342.33Q17.32,349,20,355.47L355.46,20Q349,17.31,342.32,14.93Z" fill="#4d4d4f"/><path d="M371.41,27.44l-344,344q3,6,6.39,11.86L383.28,33.83Q377.44,30.48,371.41,27.44Z" fill="#4d4d4f"/><path d="M397.69,42.77,42.77,397.69q3.63,5.46,7.53,10.72L408.42,50.31Q403.16,46.4,397.69,42.77Z" fill="#4d4d4f"/><path d="M421.43,60.64,60.65,421.43q4.18,4.93,8.6,9.65L431.08,69.25Q426.36,64.82,421.43,60.64Z" fill="#4d4d4f"/><path d="M442.75,80.91,80.92,442.75q4.72,4.42,9.65,8.6L451.37,90.58Q447.18,85.64,442.75,80.91Z" fill="#4d4d4f"/><path d="M461.69,103.58,103.58,461.69q5.26,3.91,10.73,7.54L469.23,114.31Q465.59,108.85,461.69,103.58Z" fill="#4d4d4f"/><path d="M478.17,128.72,128.71,478.16q5.84,3.35,11.88,6.4l344-344Q481.51,134.56,478.17,128.72Z" fill="#4d4d4f"/><path d="M492,156.53,156.53,492q6.48,2.73,13.14,5.11L497.06,169.67Q494.68,163,492,156.53Z" fill="#4d4d4f"/><path d="M502.69,187.41,187.4,502.69q7.24,2,14.66,3.6L506.29,202.06Q504.7,194.65,502.69,187.41Z" fill="#4d4d4f"/><path d="M509.74,222,221.94,509.74q8.23,1.09,16.62,1.66L511.4,238.56Q510.83,230.18,509.74,222Z" fill="#4d4d4f"/><path d="M510.81,280.75q.92-9.59,1.13-19.38L261.37,511.93q9.79-.2,19.39-1.13Z" fill="#4d4d4f"/><path d="M332.92,500.23,500.23,332.92a254,254,0,0,0,6.42-24.68L308.23,506.66A254.22,254.22,0,0,0,332.92,500.23Z" fill="#4d4d4f"/><path d="M484,372.49,372.48,484A257.12,257.12,0,0,0,484,372.49Z" fill="#4d4d4f"/><path d="M176.21,316.33l19.45,19.47a16,16,0,0,0,22.66,0l36.39-36.37h0s0-.06.07-.08l3.72-3.73a12.84,12.84,0,0,1,18.12,0l4.51,4.5a12.85,12.85,0,0,1,0,18.13L277.4,322l-.07.06h0L241,358.44a48.09,48.09,0,0,1-67.93,0L153.56,339a48.1,48.1,0,0,1,0-67.93l36.39-36.38h0l.07-.08,3.73-3.73a12.84,12.84,0,0,1,18.11,0l4.51,4.51a12.81,12.81,0,0,1,0,18.11l-3.71,3.73-.08.07,0,0-36.38,36.38A16,16,0,0,0,176.21,316.33Zm159.58-98L299.41,254.7l0,0s-.06,0-.08.07l-3.71,3.72a12.84,12.84,0,0,0,0,18.12l4.51,4.52a12.84,12.84,0,0,0,18.1,0l3.74-3.71a.19.19,0,0,1,.07-.09h0L358.44,241a48.14,48.14,0,0,0,0-67.94L339,153.57a48.07,48.07,0,0,0-67.92,0L234.65,190h0l-.07.06-3.72,3.73a12.84,12.84,0,0,0,0,18.12l4.51,4.51a12.86,12.86,0,0,0,18.13,0l3.71-3.73a.46.46,0,0,1,.07-.08l0,0,36.39-36.37a16,16,0,0,1,22.64,0l19.46,19.46A16,16,0,0,1,335.79,218.32ZM294.14,211a12.82,12.82,0,0,0-18.1,0l-63.71,63.72a12.82,12.82,0,0,0,0,18.1l6.81,6.82a12.86,12.86,0,0,0,18.11,0L301,236a12.86,12.86,0,0,0,0-18.12Z" fill="#fff"/></svg>