<svg id="Layer_1" data-name="Layer 1" xmlns="http://www.w3.org/2000/svg" viewBox="0 0 512 512"><title>refresh</title><path d="M512,261c0,141.38-114.61,256-256,256S0,402.39,0,261,114.62,5,256,5,512,119.62,512,261Z" fill="#404041"/><path d="M28,139.52,139.52,28A257.1,257.1,0,0,0,28,139.52Z" fill="#4d4d4f"/><path d="M179.06,11.77,11.77,179.06a254.14,254.14,0,0,0-6.43,24.69L203.75,5.34A253.94,253.94,0,0,0,179.06,11.77Z" fill="#4d4d4f"/><path d="M231.24,1.2l-230,230Q.27,240.84.07,250.64L250.63.07Q240.84.27,231.24,1.2Z" fill="#4d4d4f"/><path d="M273.44.6.6,273.43q.56,8.39,1.66,16.63L290.05,2.26Q281.83,1.17,273.44.6Z" fill="#4d4d4f"/><path d="M309.94,5.71,5.71,309.95q1.59,7.41,3.6,14.66L324.6,9.31Q317.35,7.3,309.94,5.71Z" fill="#4d4d4f"/><path d="M342.32,14.93,14.94,342.33Q17.32,349,20,355.47L355.46,20Q349,17.31,342.32,14.93Z" fill="#4d4d4f"/><path d="M371.41,27.44l-344,344q3,6,6.39,11.86L383.28,33.83Q377.44,30.48,371.41,27.44Z" fill="#4d4d4f"/><path d="M397.69,42.77,42.77,397.69q3.63,5.46,7.53,10.72L408.42,50.31Q403.16,46.4,397.69,42.77Z" fill="#4d4d4f"/><path d="M421.43,60.64,60.65,421.43q4.18,4.93,8.6,9.65L431.08,69.25Q426.36,64.82,421.43,60.64Z" fill="#4d4d4f"/><path d="M442.75,80.91,80.92,442.75q4.72,4.42,9.65,8.6L451.37,90.58Q447.18,85.64,442.75,80.91Z" fill="#4d4d4f"/><path d="M461.69,103.58,103.58,461.69q5.26,3.91,10.73,7.54L469.23,114.31Q465.59,108.85,461.69,103.58Z" fill="#4d4d4f"/><path d="M478.17,128.72,128.71,478.16q5.84,3.35,11.88,6.4l344-344Q481.51,134.56,478.17,128.72Z" fill="#4d4d4f"/><path d="M492,156.53,156.53,492q6.48,2.73,13.14,5.11L497.06,169.67Q494.68,163,492,156.53Z" fill="#4d4d4f"/><path d="M502.69,187.41,187.4,502.69q7.24,2,14.66,3.6L506.29,202.06Q504.7,194.65,502.69,187.41Z" fill="#4d4d4f"/><path d="M509.74,222,221.94,509.74q8.23,1.09,16.62,1.66L511.4,238.56Q510.83,230.18,509.74,222Z" fill="#4d4d4f"/><path d="M510.81,280.75q.92-9.59,1.13-19.38L261.37,511.93q9.79-.2,19.39-1.13Z" fill="#4d4d4f"/><path d="M332.92,500.23,500.23,332.92a254,254,0,0,0,6.42-24.68L308.23,506.66A254.22,254.22,0,0,0,332.92,500.23Z" fill="#4d4d4f"/><path d="M484,372.49,372.48,484A257.12,257.12,0,0,0,484,372.49Z" fill="#4d4d4f"/><path d="M345,328.45,274.5,386.23c-4.45,3.13-8.12,1.26-8.12-4.2V362.11c-85-.88-112.56-63.61-119.3-93-1.84-8,2.56-10.95,4.85-10.53,2.95.55,4.52,6.36,7.15,10.49,15.86,24.71,83.62,26.27,107.29,18.52V263.55c0-5.45,3.67-7.33,8.12-4.22L345,317.12C349.5,320.25,349.5,325.34,345,328.45ZM167,204.89l70.55,57.79c4.44,3.08,8.11,1.22,8.11-4.23V234.38c23.68-7.76,91.43-6.19,107.29,18.5,2.64,4.13,4.22,9.94,7.15,10.5,2.3.42,6.7-2.55,4.84-10.51-6.74-29.38-34.27-92.1-119.29-93V140c0-5.46-3.67-7.34-8.11-4.22L167,193.54C162.51,196.67,162.51,201.76,167,204.89Z" fill="#fff"/></svg>