<svg id="Layer_1" data-name="Layer 1" xmlns="http://www.w3.org/2000/svg" viewBox="0 0 512 512"><title>shut_down</title><circle cx="256" cy="256" r="256" fill="#404041"/><path d="M28,139.51,139.5,28A257.11,257.11,0,0,0,28,139.51Z" fill="#4d4d4f"/><path d="M179,11.78,11.78,179a254,254,0,0,0-6.43,24.7L203.75,5.34A254,254,0,0,0,179,11.78Z" fill="#4d4d4f"/><path d="M231.23,1.2l-230,230q-.92,9.6-1.13,19.4L250.63.07Q240.83.27,231.23,1.2Z" fill="#4d4d4f"/><path d="M273.44.6.6,273.43q.56,8.38,1.65,16.61L290,2.26Q281.82,1.17,273.44.6Z" fill="#4d4d4f"/><path d="M309.93,5.71,5.71,309.94q1.59,7.41,3.6,14.66L324.6,9.31Q317.35,7.3,309.93,5.71Z" fill="#4d4d4f"/><path d="M342.32,14.94,14.93,342.32Q17.32,349,20,355.47L355.47,20Q349,17.31,342.32,14.94Z" fill="#4d4d4f"/><path d="M371.41,27.44l-344,344q3,6,6.39,11.87L383.28,33.83Q377.44,30.48,371.41,27.44Z" fill="#4d4d4f"/><path d="M397.69,42.77,42.77,397.69q3.64,5.46,7.54,10.73L408.41,50.31Q403.16,46.4,397.69,42.77Z" fill="#4d4d4f"/><path d="M421.42,60.64,60.64,421.43q4.18,4.93,8.6,9.65L431.07,69.24Q426.36,64.82,421.42,60.64Z" fill="#4d4d4f"/><path d="M442.75,80.92,80.92,442.75q4.72,4.42,9.65,8.6L451.36,90.58Q447.18,85.64,442.75,80.92Z" fill="#4d4d4f"/><path d="M461.69,103.58,103.58,461.7q5.26,3.9,10.73,7.54L469.23,114.31Q465.59,108.85,461.69,103.58Z" fill="#4d4d4f"/><path d="M478.16,128.72,128.71,478.16q5.84,3.35,11.87,6.39l344-344Q481.51,134.56,478.16,128.72Z" fill="#4d4d4f"/><path d="M492,156.52,156.53,492q6.48,2.74,13.15,5.11L497.07,169.68Q494.68,163,492,156.52Z" fill="#4d4d4f"/><path d="M502.69,187.4,187.4,502.69q7.25,2,14.67,3.6L506.29,202.07Q504.7,194.66,502.69,187.4Z" fill="#4d4d4f"/><path d="M509.74,222,222,509.74q8.23,1.09,16.61,1.65L511.4,238.56Q510.83,230.19,509.74,222Z" fill="#4d4d4f"/><path d="M510.8,280.76q.92-9.59,1.13-19.38L261.37,511.93q9.79-.2,19.38-1.13Z" fill="#4d4d4f"/><path d="M332.94,500.23,500.23,332.94a254.21,254.21,0,0,0,6.43-24.68l-198.4,198.4A254.07,254.07,0,0,0,332.94,500.23Z" fill="#4d4d4f"/><path d="M484,372.5,372.49,484A257.11,257.11,0,0,0,484,372.5Z" fill="#4d4d4f"/><path d="M275.26,149.28V250.36a12.26,12.26,0,0,1-12.32,12.18H244.4a12.26,12.26,0,0,1-12.31-12.18V149.28a12.24,12.24,0,0,1,12.31-12.15h18.54A12.24,12.24,0,0,1,275.26,149.28ZM291,181.78v38a55,55,0,0,1,21,43.13c0,30.59-25.09,55.4-56,55.4S200,293.45,200,262.86A54.71,54.71,0,0,1,216.29,224V183.84c-29.48,14.47-49.88,44.3-49.88,79,0,48.89,40.11,88.54,89.58,88.54s89.59-39.65,89.59-88.54C345.59,226.33,323,195.26,291,181.78Z" fill="#fff"/></svg>