<svg id="Layer_1" data-name="Layer 1" xmlns="http://www.w3.org/2000/svg" viewBox="0 0 512 512"><title>skip_forward</title><ellipse cx="256" cy="256" rx="256" ry="255.99" fill="#404041"/><path d="M28,139.53,139.52,28A257.1,257.1,0,0,0,28,139.53Z" fill="#4d4d4f"/><path d="M179.05,11.78,11.78,179.05a254.15,254.15,0,0,0-6.43,24.71L203.75,5.35A254.15,254.15,0,0,0,179.05,11.78Z" fill="#4d4d4f"/><path d="M231.23,1.2l-230,230Q.28,240.84.07,250.63L250.62.07Q240.83.28,231.23,1.2Z" fill="#4d4d4f"/><path d="M273.44.61.6,273.44q.56,8.38,1.65,16.6L290,2.26Q281.82,1.17,273.44.61Z" fill="#4d4d4f"/><path d="M309.93,5.72,5.71,309.95q1.59,7.41,3.6,14.66L324.6,9.31Q317.35,7.3,309.93,5.72Z" fill="#4d4d4f"/><path d="M342.32,14.94,14.93,342.32Q17.32,349,20,355.47L355.46,20Q349,17.31,342.32,14.94Z" fill="#4d4d4f"/><path d="M371.41,27.44l-344,344q3,6,6.39,11.87L383.27,33.83Q377.44,30.48,371.41,27.44Z" fill="#4d4d4f"/><path d="M397.69,42.78,42.77,397.69q3.64,5.46,7.54,10.73L408.41,50.31Q403.16,46.41,397.69,42.78Z" fill="#4d4d4f"/><path d="M421.43,60.65,60.65,421.43q4.18,4.93,8.6,9.65L431.08,69.25Q426.36,64.83,421.43,60.65Z" fill="#4d4d4f"/><path d="M442.75,80.92,80.92,442.75q4.72,4.42,9.65,8.6L451.36,90.58Q447.17,85.64,442.75,80.92Z" fill="#4d4d4f"/><path d="M461.69,103.58,103.58,461.69q5.26,3.91,10.73,7.54L469.23,114.32Q465.59,108.85,461.69,103.58Z" fill="#4d4d4f"/><path d="M478.16,128.72,128.71,478.16q5.84,3.35,11.88,6.4l344-344Q481.51,134.56,478.16,128.72Z" fill="#4d4d4f"/><path d="M492,156.53,156.54,492q6.48,2.73,13.15,5.11L497.06,169.68Q494.68,163,492,156.53Z" fill="#4d4d4f"/><path d="M502.69,187.4,187.4,502.69q7.24,2,14.66,3.6L506.29,202.07Q504.7,194.66,502.69,187.4Z" fill="#4d4d4f"/><path d="M509.74,222,222,509.74q8.23,1.09,16.62,1.66L511.4,238.56Q510.83,230.18,509.74,222Z" fill="#4d4d4f"/><path d="M510.81,280.75q.92-9.59,1.13-19.38L261.38,511.93q9.79-.2,19.38-1.13Z" fill="#4d4d4f"/><path d="M332.92,500.23,500.24,332.91a254.08,254.08,0,0,0,6.42-24.68L308.25,506.65A254.15,254.15,0,0,0,332.92,500.23Z" fill="#4d4d4f"/><path d="M484,372.48,372.48,484A257.1,257.1,0,0,0,484,372.48Z" fill="#4d4d4f"/><path d="M335.36,164.49H310c-6.68,0-12.16,5.87-12.16,13.06v70.27L175,166.13c-5.79-3.84-10.5-.75-10.5,6.87V339c0,7.61,4.71,10.7,10.5,6.88l122.9-81.69v70.25c0,7.19,5.48,13.08,12.16,13.08h25.32c6.68,0,12.15-5.89,12.15-13.08V177.55C347.52,170.36,342,164.49,335.36,164.49Z" fill="#fff" fill-rule="evenodd"/></svg>