<svg id="Layer_1" data-name="Layer 1" xmlns="http://www.w3.org/2000/svg" viewBox="0 0 512 512"><title>television</title><path d="M512,256c0,141.38-114.62,256-256,256S0,397.39,0,256,114.61,0,256,0,512,114.62,512,256Z" fill="#404041"/><path d="M28,139.51,139.5,28A257.11,257.11,0,0,0,28,139.51Z" fill="#4d4d4f"/><path d="M179.06,11.78,11.78,179.06a254.2,254.2,0,0,0-6.43,24.69L203.75,5.35A254.06,254.06,0,0,0,179.06,11.78Z" fill="#4d4d4f"/><path d="M231.24,1.2l-230,230q-.92,9.6-1.13,19.39L250.62.07Q240.84.27,231.24,1.2Z" fill="#4d4d4f"/><path d="M273.44.61.6,273.43q.56,8.38,1.65,16.61L290,2.26Q281.82,1.17,273.44.61Z" fill="#4d4d4f"/><path d="M309.93,5.72,5.71,309.94q1.59,7.41,3.6,14.66L324.6,9.32Q317.35,7.3,309.93,5.72Z" fill="#4d4d4f"/><path d="M342.31,14.94,14.93,342.31Q17.32,349,20,355.47L355.46,20Q349,17.31,342.31,14.94Z" fill="#4d4d4f"/><path d="M371.41,27.45l-344,344q3,6,6.4,11.87L383.27,33.84Q377.44,30.49,371.41,27.45Z" fill="#4d4d4f"/><path d="M397.68,42.78,42.77,397.68q3.64,5.46,7.54,10.73L408.41,50.31Q403.15,46.41,397.68,42.78Z" fill="#4d4d4f"/><path d="M421.42,60.65,60.64,421.42q4.18,4.94,8.61,9.65L431.07,69.25Q426.36,64.83,421.42,60.65Z" fill="#4d4d4f"/><path d="M442.74,80.92,80.92,442.75q4.72,4.42,9.65,8.6L451.35,90.58Q447.17,85.64,442.74,80.92Z" fill="#4d4d4f"/><path d="M461.69,103.58,103.59,461.69q5.26,3.91,10.73,7.54L469.23,114.31Q465.59,108.85,461.69,103.58Z" fill="#4d4d4f"/><path d="M478.16,128.72,128.72,478.16q5.84,3.35,11.87,6.4l344-344Q481.51,134.57,478.16,128.72Z" fill="#4d4d4f"/><path d="M492,156.53,156.53,492q6.49,2.74,13.16,5.11L497.06,169.68Q494.68,163,492,156.53Z" fill="#4d4d4f"/><path d="M502.69,187.4,187.4,502.69q7.25,2,14.66,3.6L506.29,202.06Q504.7,194.65,502.69,187.4Z" fill="#4d4d4f"/><path d="M509.74,222,222,509.74q8.22,1.09,16.61,1.65L511.4,238.56Q510.83,230.18,509.74,222Z" fill="#4d4d4f"/><path d="M510.8,280.76q.92-9.6,1.13-19.39L261.37,511.93q9.79-.2,19.4-1.13Z" fill="#4d4d4f"/><path d="M332.95,500.22,500.23,332.93a254,254,0,0,0,6.43-24.69L308.25,506.65A254.36,254.36,0,0,0,332.95,500.22Z" fill="#4d4d4f"/><path d="M484,372.48,372.5,484A257.12,257.12,0,0,0,484,372.48Z" fill="#4d4d4f"/><path d="M360.29,194.21H271.72l21.55-21.14a23.31,23.31,0,0,0,2.48.84,17.8,17.8,0,0,0,21.77-12.3,17.41,17.41,0,0,0-12.59-21.36,17.82,17.82,0,0,0-21.76,12.32,17.08,17.08,0,0,0,1.06,11.88l-28.39,27.87-28.19-27.65a16.12,16.12,0,0,0,1.19-3.1,17.41,17.41,0,0,0-12.58-21.33,17.79,17.79,0,0,0-21.78,12.3,17.39,17.39,0,0,0,12.59,21.33,18,18,0,0,0,11.42-.72l21.47,21.06H151.68a14.22,14.22,0,0,0-14.17,14.17V358.2a14.21,14.21,0,0,0,14.17,14.17H360.29a14.22,14.22,0,0,0,14.19-14.17V208.38A14.22,14.22,0,0,0,360.29,194.21ZM286.5,342.44H168.2V224.14H286.5Zm43.5,2.84a12.21,12.21,0,1,1,12.21-12.22A12.2,12.2,0,0,1,330,345.29Zm0-38.82a12.22,12.22,0,1,1,12.21-12.22A12.2,12.2,0,0,1,330,306.46Zm0-38.83a12.22,12.22,0,1,1,12.21-12.22A12.21,12.21,0,0,1,330,267.63Z" fill="#fff" fill-rule="evenodd"/></svg>